mtllib material.mtl
o Default
v -6 -0.00007645929144928232 0.9999499917030334
v -6 0.000023540706024505198 -0.00005000249802833423
v -5 0.000023540706024505198 -0.00005000249802833423
v -5 -0.00007645929144928232 0.9999499917030334
vt 0 0
vt 0.25 0.25
vt 0 0.25
vt 0 0
vt 0.25 0
vt 0.25 0.25
vn 0 0.9999999950000003 0.00009999999755368136
vn 0 0.9999999950000003 0.00009999999755368136
vn 0 0.9999999950000003 0.00009999999755368136
vn 0 0.9999999950000003 0.00009999999755368136
vn 0 0.9999999950000003 0.00009999999755368136
vn 0 0.9999999950000003 0.00009999999755368136
g Scene
f 1/1/1 3/2/2 2/3/3
f 1/4/4 4/5/5 3/6/6
