mtllib material.mtl
o Default
v -1 -0.00011561863357201219 0.9999499917030334
v -1 -0.000015618637917214073 -0.00005000249802833423
v 0 -0.000015618637917214073 -0.00005000249802833423
v 0 -0.00011561863357201219 0.9999499917030334
v 7.771561172376096e-16 -0.5 1
v 0 -0.000015618637917214073 -0.00005000249802833423
v 0 -0.00011561863357201219 0.9999499917030334
v 9.992007221626409e-16 -0.5 -2.220446049250313e-16
v 9.992007221626409e-16 -0.5 -2.220446049250313e-16
v -1 -0.000015618637917214073 -0.00005000249802833423
v 0 -0.000015618637917214073 -0.00005000249802833423
v -1 -0.5 -8.881784197001252e-16
v -1 -0.5 -8.881784197001252e-16
v -1 -0.00011561863357201219 0.9999499917030334
v -1 -0.000015618637917214073 -0.00005000249802833423
v -1 -0.5 1
v -1 -0.5 1
v 0 -0.00011561863357201219 0.9999499917030334
v -1 -0.00011561863357201219 0.9999499917030334
v 7.771561172376096e-16 -0.5 1
vt 0 0.75
vt 0.25 1
vt 0 1
vt 0 0.75
vt 0.25 0.75
vt 0.25 1
vt 0 0.625
vt 0.25 0.75
vt 0 0.75
vt 0 0.625
vt 0.25 0.625
vt 0.25 0.75
vt 0 0.625
vt 0.25 0.75
vt 0 0.75
vt 0 0.625
vt 0.25 0.625
vt 0.25 0.75
vt 0 0.625
vt 0.25 0.75
vt 0 0.75
vt 0 0.625
vt 0.25 0.625
vt 0.25 0.75
vt 0 0.625
vt 0.25 0.75
vt 0 0.75
vt 0 0.625
vt 0.25 0.625
vt 0.25 0.75
vn 0 0.9999999950000005 0.00009999999573469198
vn 0 0.9999999950000005 0.00009999999573469198
vn 0 0.9999999950000005 0.00009999999573469198
vn 0 0.9999999950000005 0.00009999999573469198
vn 0 0.9999999950000005 0.00009999999573469198
vn 0 0.9999999950000005 0.00009999999573469198
vn 1 1.5546717480708457e-15 1.5546716895326646e-19
vn 1 1.5546717480708457e-15 1.5546716895326646e-19
vn 1 1.5546717480708457e-15 1.5546716895326646e-19
vn 1 1.998486077155965e-15 2.2204460492503126e-16
vn 1 1.998486077155965e-15 2.2204460492503126e-16
vn 1 1.998486077155965e-15 2.2204460492503126e-16
vn 0 -0.00010000811953733387 -0.9999999949991881
vn 0 -0.00010000811953733387 -0.9999999949991881
vn 0 -0.00010000811953733387 -0.9999999949991881
vn 6.661338114438834e-16 -0.00010000811953600156 -0.9999999949991881
vn 6.661338114438834e-16 -0.00010000811953600156 -0.9999999949991881
vn 6.661338114438834e-16 -0.00010000811953600156 -0.9999999949991881
vn -1 0 0
vn -1 0 0
vn -1 0 0
vn -0.9999999999999999 0 0
vn -0.9999999999999999 0 0
vn -0.9999999999999999 0 0
vn 0 0.00010003972634555107 0.9999999949960265
vn 0 0.00010003972634555107 0.9999999949960265
vn 0 0.00010003972634555107 0.9999999949960265
vn 0 0.00010003972634555107 0.9999999949960265
vn 0 0.00010003972634555107 0.9999999949960265
vn 0 0.00010003972634555107 0.9999999949960265
g Scene
f 1/1/1 3/2/2 2/3/3
f 1/4/4 4/5/5 3/6/6
f 5/7/7 6/8/8 7/9/9
f 5/10/10 8/11/11 6/12/12
f 9/13/13 10/14/14 11/15/15
f 9/16/16 12/17/17 10/18/18
f 13/19/19 14/20/20 15/21/21
f 13/22/22 16/23/23 14/24/24
f 17/25/25 18/26/26 19/27/27
f 17/28/28 20/29/29 18/30/30
